<?xml version="1.0" standalone="no"?>
<!DOCTYPE svg PUBLIC "-//W3C//DTD SVG 20010904//EN"
 "http://www.w3.org/TR/2001/REC-SVG-20010904/DTD/svg10.dtd">
<svg version="1.0" xmlns="http://www.w3.org/2000/svg"
 width="280.000000pt" height="280.000000pt" viewBox="0 0 280.000000 280.000000"
 preserveAspectRatio="xMidYMid meet">
<metadata>
Created by potrace 1.15, written by Peter Selinger 2001-2017
</metadata><g><rect x="0" y="0" width="280" height="280" fill="#ffffff" />
<g transform="translate(0.000000,280.000000) scale(0.050000,-0.050000)"
fill="#000000" stroke="none">
<path d="M480 4560 l0 -560 560 0 560 0 0 560 0 560 -560 0 -560 0 0 -560z
m960 0 l0 -400 -400 0 -400 0 0 400 0 400 400 0 400 0 0 -400z"/>
<path d="M800 4560 l0 -240 240 0 240 0 0 240 0 240 -240 0 -240 0 0 -240z"/>
<path d="M1760 5040 l0 -80 80 0 80 0 0 -80 0 -80 -80 0 -80 0 0 -240 0 -240
80 0 80 0 0 80 0 80 160 0 160 0 0 -80 0 -80 -80 0 -80 0 0 -400 0 -400 -80 0
-80 0 0 -160 0 -160 -80 0 -80 0 0 -160 0 -160 -160 0 -160 0 0 80 0 80 80 0
80 0 0 80 0 80 -80 0 -80 0 0 80 0 80 160 0 160 0 0 160 0 160 80 0 80 0 0 80
0 80 -80 0 -80 0 0 -80 0 -80 -80 0 -80 0 0 80 0 80 -80 0 -80 0 0 -80 0 -80
-80 0 -80 0 0 -80 0 -80 -160 0 -160 0 0 80 0 80 80 0 80 0 0 80 0 80 -320 0
-320 0 0 -80 0 -80 160 0 160 0 0 -160 0 -160 -80 0 -80 0 0 -80 0 -80 -80 0
-80 0 0 -320 0 -320 80 0 80 0 0 80 0 80 160 0 160 0 0 -80 0 -80 -80 0 -80 0
0 -80 0 -80 240 0 240 0 0 -80 0 -80 -240 0 -240 0 0 -80 0 -80 160 0 160 0 0
-80 0 -80 -240 0 -240 0 0 -80 0 -80 240 0 240 0 0 80 0 80 80 0 80 0 0 160 0
160 80 0 80 0 0 -80 0 -80 160 0 160 0 0 -80 0 -80 80 0 80 0 0 -80 0 -80 -80
0 -80 0 0 -80 0 -80 80 0 80 0 0 -80 0 -80 80 0 80 0 0 -80 0 -80 160 0 160 0
0 160 0 160 80 0 80 0 0 160 0 160 -80 0 -80 0 0 -80 0 -80 -80 0 -80 0 0 80
0 80 -160 0 -160 0 0 80 0 80 80 0 80 0 0 80 0 80 80 0 80 0 0 160 0 160 80 0
80 0 0 160 0 160 80 0 80 0 0 80 0 80 80 0 80 0 0 240 0 240 80 0 80 0 0 80 0
80 80 0 80 0 0 -160 0 -160 -80 0 -80 0 0 -80 0 -80 80 0 80 0 0 80 0 80 80 0
80 0 0 160 0 160 160 0 160 0 0 -80 0 -80 160 0 160 0 0 -80 0 -80 160 0 160
0 0 160 0 160 -80 0 -80 0 0 80 0 80 -80 0 -80 0 0 -80 0 -80 -160 0 -160 0 0
80 0 80 80 0 80 0 0 80 0 80 80 0 80 0 0 160 0 160 -80 0 -80 0 0 160 0 160
80 0 80 0 0 80 0 80 -160 0 -160 0 0 80 0 80 80 0 80 0 0 80 0 80 -240 0 -240
0 0 -80 0 -80 80 0 80 0 0 -160 0 -160 -80 0 -80 0 0 -80 0 -80 -80 0 -80 0 0
80 0 80 -80 0 -80 0 0 240 0 240 -80 0 -80 0 0 -160 0 -160 -80 0 -80 0 0 160
0 160 -80 0 -80 0 0 -80 0 -80 -80 0 -80 0 0 80 0 80 -80 0 -80 0 0 -80 0 -80
-80 0 -80 0 0 80 0 80 -80 0 -80 0 0 -80z m800 -320 l0 -80 -80 0 -80 0 0 -80
0 -80 -80 0 -80 0 0 160 0 160 160 0 160 0 0 -80z m320 -240 l0 -160 240 0
240 0 0 -160 0 -160 -80 0 -80 0 0 -80 0 -80 -160 0 -160 0 0 -80 0 -80 -80 0
-80 0 0 -80 0 -80 -80 0 -80 0 0 320 0 320 -80 0 -80 0 0 -160 0 -160 -80 0
-80 0 0 160 0 160 80 0 80 0 0 80 0 80 80 0 80 0 0 80 0 80 80 0 80 0 0 80 0
80 80 0 80 0 0 -160z m640 80 l0 -80 -80 0 -80 0 0 80 0 80 80 0 80 0 0 -80z
m160 -480 l0 -80 -80 0 -80 0 0 80 0 80 80 0 80 0 0 -80z m-2080 -480 l0 -80
-80 0 -80 0 0 -80 0 -80 -80 0 -80 0 0 80 0 80 80 0 80 0 0 80 0 80 80 0 80 0
0 -80z m800 0 l0 -80 -80 0 -80 0 0 80 0 80 80 0 80 0 0 -80z m160 -320 l0
-80 -80 0 -80 0 0 -80 0 -80 -80 0 -80 0 0 -160 0 -160 -80 0 -80 0 0 -160 0
-160 -80 0 -80 0 0 80 0 80 -320 0 -320 0 0 80 0 80 -160 0 -160 0 0 160 0
160 80 0 80 0 0 80 0 80 80 0 80 0 0 -80 0 -80 -80 0 -80 0 0 -80 0 -80 80 0
80 0 0 -80 0 -80 240 0 240 0 0 80 0 80 80 0 80 0 0 80 0 80 160 0 160 0 0
160 0 160 160 0 160 0 0 -80z m-1760 -160 l0 -80 -80 0 -80 0 0 80 0 80 80 0
80 0 0 -80z m960 -800 l0 -80 -160 0 -160 0 0 80 0 80 160 0 160 0 0 -80z
m480 -800 l0 -80 -80 0 -80 0 0 80 0 80 80 0 80 0 0 -80z"/>
<path d="M2720 4080 l0 -240 80 0 80 0 0 240 0 240 -80 0 -80 0 0 -240z"/>
<path d="M3040 4080 l0 -80 80 0 80 0 0 80 0 80 -80 0 -80 0 0 -80z"/>
<path d="M1920 2800 l0 -80 80 0 80 0 0 80 0 80 -80 0 -80 0 0 -80z"/>
<path d="M4000 4560 l0 -560 560 0 560 0 0 560 0 560 -560 0 -560 0 0 -560z
m960 0 l0 -400 -400 0 -400 0 0 400 0 400 400 0 400 0 0 -400z"/>
<path d="M4320 4560 l0 -240 240 0 240 0 0 240 0 240 -240 0 -240 0 0 -240z"/>
<path d="M1760 4080 l0 -80 80 0 80 0 0 80 0 80 -80 0 -80 0 0 -80z"/>
<path d="M4320 3600 l0 -240 80 0 80 0 0 160 0 160 160 0 160 0 0 80 0 80
-240 0 -240 0 0 -240z"/>
<path d="M4960 3680 l0 -160 -160 0 -160 0 0 -80 0 -80 160 0 160 0 0 -80 0
-80 80 0 80 0 0 80 0 80 -80 0 -80 0 0 80 0 80 80 0 80 0 0 160 0 160 -80 0
-80 0 0 -160z"/>
<path d="M3360 3280 l0 -80 -80 0 -80 0 0 -80 0 -80 160 0 160 0 0 -80 0 -80
-240 0 -240 0 0 80 0 80 -80 0 -80 0 0 -80 0 -80 80 0 80 0 0 -80 0 -80 -160
0 -160 0 0 -80 0 -80 -80 0 -80 0 0 -160 0 -160 -80 0 -80 0 0 -80 0 -80 400
0 400 0 0 -80 0 -80 -80 0 -80 0 0 -160 0 -160 80 0 80 0 0 -80 0 -80 -320 0
-320 0 0 -160 0 -160 80 0 80 0 0 80 0 80 80 0 80 0 0 -160 0 -160 -80 0 -80
0 0 -160 0 -160 -160 0 -160 0 0 80 0 80 80 0 80 0 0 80 0 80 -80 0 -80 0 0
-80 0 -80 -80 0 -80 0 0 80 0 80 -80 0 -80 0 0 80 0 80 -160 0 -160 0 0 -320
0 -320 80 0 80 0 0 160 0 160 160 0 160 0 0 -80 0 -80 -80 0 -80 0 0 -80 0
-80 480 0 480 0 0 80 0 80 80 0 80 0 0 80 0 80 -80 0 -80 0 0 -80 0 -80 -80 0
-80 0 0 160 0 160 320 0 320 0 0 80 0 80 -80 0 -80 0 0 80 0 80 -80 0 -80 0 0
80 0 80 80 0 80 0 0 80 0 80 -80 0 -80 0 0 80 0 80 240 0 240 0 0 -80 0 -80
-80 0 -80 0 0 -80 0 -80 80 0 80 0 0 -400 0 -400 -80 0 -80 0 0 80 0 80 -80 0
-80 0 0 -80 0 -80 80 0 80 0 0 -80 0 -80 160 0 160 0 0 80 0 80 80 0 80 0 0
240 0 240 160 0 160 0 0 -80 0 -80 -80 0 -80 0 0 -240 0 -240 80 0 80 0 0 80
0 80 160 0 160 0 0 80 0 80 80 0 80 0 0 -160 0 -160 80 0 80 0 0 160 0 160 80
0 80 0 0 240 0 240 -80 0 -80 0 0 -240 0 -240 -80 0 -80 0 0 80 0 80 -80 0
-80 0 0 80 0 80 80 0 80 0 0 80 0 80 -80 0 -80 0 0 160 0 160 80 0 80 0 0 -80
0 -80 80 0 80 0 0 80 0 80 80 0 80 0 0 80 0 80 -160 0 -160 0 0 240 0 240 80
0 80 0 0 240 0 240 80 0 80 0 0 160 0 160 -160 0 -160 0 0 80 0 80 -160 0
-160 0 0 -80 0 -80 80 0 80 0 0 -160 0 -160 80 0 80 0 0 -160 0 -160 -80 0
-80 0 0 80 0 80 -80 0 -80 0 0 80 0 80 -80 0 -80 0 0 -160 0 -160 -80 0 -80 0
0 -80 0 -80 80 0 80 0 0 -80 0 -80 -80 0 -80 0 0 -80 0 -80 -320 0 -320 0 0
160 0 160 -80 0 -80 0 0 -80 0 -80 -80 0 -80 0 0 80 0 80 -80 0 -80 0 0 80 0
80 80 0 80 0 0 80 0 80 -80 0 -80 0 0 80 0 80 240 0 240 0 0 -80 0 -80 -80 0
-80 0 0 -80 0 -80 240 0 240 0 0 -80 0 -80 -80 0 -80 0 0 -80 0 -80 160 0 160
0 0 240 0 240 -80 0 -80 0 0 80 0 80 -80 0 -80 0 0 160 0 160 -80 0 -80 0 0
160 0 160 -80 0 -80 0 0 -80z m1120 -960 l0 -80 80 0 80 0 0 -160 0 -160 -160
0 -160 0 0 80 0 80 80 0 80 0 0 80 0 80 -80 0 -80 0 0 80 0 80 80 0 80 0 0
-80z m-160 -800 l0 -240 -240 0 -240 0 0 240 0 240 240 0 240 0 0 -240z
m-1120 -320 l0 -80 -80 0 -80 0 0 80 0 80 80 0 80 0 0 -80z m1440 0 l0 -80
-80 0 -80 0 0 80 0 80 80 0 80 0 0 -80z m0 -320 l0 -80 -160 0 -160 0 0 80 0
80 160 0 160 0 0 -80z"/>
<path d="M4000 1520 l0 -80 80 0 80 0 0 80 0 80 -80 0 -80 0 0 -80z"/>
<path d="M4160 3120 l0 -80 -80 0 -80 0 0 -160 0 -160 80 0 80 0 0 160 0 160
80 0 80 0 0 80 0 80 -80 0 -80 0 0 -80z"/>
<path d="M480 2160 l0 -80 80 0 80 0 0 80 0 80 -80 0 -80 0 0 -80z"/>
<path d="M1440 1840 l0 -80 80 0 80 0 0 80 0 80 -80 0 -80 0 0 -80z"/>
<path d="M2720 1680 l0 -80 80 0 80 0 0 80 0 80 -80 0 -80 0 0 -80z"/>
<path d="M480 1040 l0 -560 560 0 560 0 0 560 0 560 -560 0 -560 0 0 -560z
m960 0 l0 -400 -400 0 -400 0 0 400 0 400 400 0 400 0 0 -400z"/>
<path d="M800 1040 l0 -240 240 0 240 0 0 240 0 240 -240 0 -240 0 0 -240z"/>
</g>
</g></svg>
