<?xml version="1.0" standalone="no"?>
<!DOCTYPE svg PUBLIC "-//W3C//DTD SVG 20010904//EN"
 "http://www.w3.org/TR/2001/REC-SVG-20010904/DTD/svg10.dtd">
<svg version="1.0" xmlns="http://www.w3.org/2000/svg"
 width="312.000000pt" height="312.000000pt" viewBox="0 0 312.000000 312.000000"
 preserveAspectRatio="xMidYMid meet">
<metadata>
Created by potrace 1.15, written by Peter Selinger 2001-2017
</metadata><g><rect x="0" y="0" width="312" height="312" fill="#ffffff" />
<g transform="translate(0.000000,312.000000) scale(0.050000,-0.050000)"
fill="#000000" stroke="none">
<path d="M480 5200 l0 -560 560 0 560 0 0 560 0 560 -560 0 -560 0 0 -560z
m960 0 l0 -400 -400 0 -400 0 0 400 0 400 400 0 400 0 0 -400z"/>
<path d="M800 5200 l0 -240 240 0 240 0 0 240 0 240 -240 0 -240 0 0 -240z"/>
<path d="M1760 5680 l0 -80 80 0 80 0 0 -80 0 -80 -80 0 -80 0 0 -240 0 -240
80 0 80 0 0 80 0 80 160 0 160 0 0 -80 0 -80 -80 0 -80 0 0 -400 0 -400 -80 0
-80 0 0 -80 0 -80 -80 0 -80 0 0 -160 0 -160 80 0 80 0 0 -80 0 -80 80 0 80 0
0 80 0 80 80 0 80 0 0 -160 0 -160 -80 0 -80 0 0 -80 0 -80 -160 0 -160 0 0
80 0 80 -80 0 -80 0 0 80 0 80 -80 0 -80 0 0 80 0 80 80 0 80 0 0 80 0 80
-240 0 -240 0 0 -80 0 -80 -80 0 -80 0 0 -80 0 -80 -80 0 -80 0 0 80 0 80
-160 0 -160 0 0 -160 0 -160 240 0 240 0 0 80 0 80 80 0 80 0 0 80 0 80 80 0
80 0 0 -160 0 -160 160 0 160 0 0 -80 0 -80 -80 0 -80 0 0 -80 0 -80 -80 0
-80 0 0 -80 0 -80 -80 0 -80 0 0 160 0 160 -80 0 -80 0 0 -80 0 -80 -80 0 -80
0 0 80 0 80 -160 0 -160 0 0 -80 0 -80 160 0 160 0 0 -80 0 -80 160 0 160 0 0
-80 0 -80 -240 0 -240 0 0 80 0 80 -80 0 -80 0 0 -320 0 -320 240 0 240 0 0
-80 0 -80 -160 0 -160 0 0 -80 0 -80 -80 0 -80 0 0 -80 0 -80 80 0 80 0 0 80
0 80 160 0 160 0 0 80 0 80 80 0 80 0 0 -160 0 -160 80 0 80 0 0 160 0 160
160 0 160 0 0 -80 0 -80 -80 0 -80 0 0 -80 0 -80 160 0 160 0 0 -80 0 -80 80
0 80 0 0 -80 0 -80 160 0 160 0 0 80 0 80 80 0 80 0 0 -160 0 -160 -240 0
-240 0 0 -80 0 -80 -80 0 -80 0 0 -320 0 -320 480 0 480 0 0 80 0 80 -80 0
-80 0 0 160 0 160 80 0 80 0 0 80 0 80 -160 0 -160 0 0 80 0 80 160 0 160 0 0
80 0 80 80 0 80 0 0 -80 0 -80 80 0 80 0 0 -80 0 -80 -80 0 -80 0 0 -160 0
-160 80 0 80 0 0 -80 0 -80 -80 0 -80 0 0 -80 0 -80 400 0 400 0 0 80 0 80
-160 0 -160 0 0 160 0 160 -80 0 -80 0 0 -80 0 -80 -80 0 -80 0 0 160 0 160
80 0 80 0 0 160 0 160 80 0 80 0 0 -160 0 -160 80 0 80 0 0 160 0 160 80 0 80
0 0 -240 0 -240 160 0 160 0 0 -160 0 -160 -80 0 -80 0 0 -80 0 -80 80 0 80 0
0 80 0 80 80 0 80 0 0 -80 0 -80 80 0 80 0 0 80 0 80 80 0 80 0 0 -80 0 -80
160 0 160 0 0 80 0 80 80 0 80 0 0 -80 0 -80 80 0 80 0 0 80 0 80 -80 0 -80 0
0 80 0 80 -80 0 -80 0 0 80 0 80 80 0 80 0 0 80 0 80 80 0 80 0 0 -80 0 -80
80 0 80 0 0 -80 0 -80 160 0 160 0 0 -80 0 -80 80 0 80 0 0 80 0 80 -80 0 -80
0 0 160 0 160 80 0 80 0 0 80 0 80 -80 0 -80 0 0 80 0 80 -240 0 -240 0 0 80
0 80 80 0 80 0 0 240 0 240 80 0 80 0 0 -80 0 -80 80 0 80 0 0 -80 0 -80 80 0
80 0 0 80 0 80 -80 0 -80 0 0 80 0 80 80 0 80 0 0 160 0 160 -160 0 -160 0 0
80 0 80 -80 0 -80 0 0 160 0 160 80 0 80 0 0 -80 0 -80 80 0 80 0 0 -80 0 -80
80 0 80 0 0 80 0 80 -80 0 -80 0 0 80 0 80 80 0 80 0 0 160 0 160 -160 0 -160
0 0 160 0 160 80 0 80 0 0 80 0 80 -160 0 -160 0 0 80 0 80 -160 0 -160 0 0
80 0 80 80 0 80 0 0 80 0 80 -160 0 -160 0 0 80 0 80 -80 0 -80 0 0 80 0 80
-80 0 -80 0 0 160 0 160 -80 0 -80 0 0 -80 0 -80 -80 0 -80 0 0 80 0 80 -80 0
-80 0 0 -160 0 -160 -80 0 -80 0 0 480 0 480 80 0 80 0 0 -160 0 -160 160 0
160 0 0 -80 0 -80 80 0 80 0 0 320 0 320 -80 0 -80 0 0 80 0 80 -640 0 -640 0
0 -80 0 -80 80 0 80 0 0 -80 0 -80 80 0 80 0 0 -80 0 -80 -80 0 -80 0 0 -80 0
-80 -160 0 -160 0 0 80 0 80 80 0 80 0 0 80 0 80 -80 0 -80 0 0 80 0 80 -80 0
-80 0 0 80 0 80 -160 0 -160 0 0 -80 0 -80 -80 0 -80 0 0 80 0 80 -80 0 -80 0
0 -80 0 -80 -80 0 -80 0 0 80 0 80 -80 0 -80 0 0 -80z m960 -160 l0 -80 -80 0
-80 0 0 -80 0 -80 -80 0 -80 0 0 -80 0 -80 -80 0 -80 0 0 160 0 160 160 0 160
0 0 80 0 80 80 0 80 0 0 -80z m1120 0 l0 -80 -80 0 -80 0 0 -80 0 -80 -80 0
-80 0 0 -160 0 -160 -80 0 -80 0 0 -160 0 -160 80 0 80 0 0 80 0 80 80 0 80 0
0 -80 0 -80 -80 0 -80 0 0 -240 0 -240 80 0 80 0 0 -80 0 -80 -80 0 -80 0 0
80 0 80 -80 0 -80 0 0 240 0 240 -80 0 -80 0 0 80 0 80 -80 0 -80 0 0 -160 0
-160 80 0 80 0 0 -80 0 -80 -80 0 -80 0 0 -80 0 -80 80 0 80 0 0 -80 0 -80 80
0 80 0 0 -80 0 -80 80 0 80 0 0 -240 0 -240 160 0 160 0 0 80 0 80 -80 0 -80
0 0 160 0 160 80 0 80 0 0 80 0 80 160 0 160 0 0 -80 0 -80 80 0 80 0 0 80 0
80 160 0 160 0 0 80 0 80 -160 0 -160 0 0 80 0 80 -80 0 -80 0 0 -80 0 -80
-160 0 -160 0 0 80 0 80 160 0 160 0 0 80 0 80 80 0 80 0 0 -80 0 -80 160 0
160 0 0 -80 0 -80 80 0 80 0 0 -80 0 -80 -80 0 -80 0 0 -80 0 -80 80 0 80 0 0
-240 0 -240 80 0 80 0 0 160 0 160 80 0 80 0 0 -80 0 -80 80 0 80 0 0 -160 0
-160 -160 0 -160 0 0 -80 0 -80 -80 0 -80 0 0 160 0 160 -160 0 -160 0 0 -320
0 -320 80 0 80 0 0 -80 0 -80 320 0 320 0 0 -80 0 -80 80 0 80 0 0 -80 0 -80
-80 0 -80 0 0 -80 0 -80 -80 0 -80 0 0 -80 0 -80 -320 0 -320 0 0 80 0 80 240
0 240 0 0 160 0 160 -160 0 -160 0 0 -80 0 -80 -160 0 -160 0 0 160 0 160 80
0 80 0 0 80 0 80 -160 0 -160 0 0 -160 0 -160 -80 0 -80 0 0 80 0 80 -80 0
-80 0 0 -80 0 -80 -80 0 -80 0 0 80 0 80 -80 0 -80 0 0 80 0 80 -80 0 -80 0 0
160 0 160 -80 0 -80 0 0 -160 0 -160 -80 0 -80 0 0 -80 0 -80 80 0 80 0 0 -80
0 -80 -80 0 -80 0 0 -80 0 -80 80 0 80 0 0 -80 0 -80 80 0 80 0 0 -80 0 -80
-240 0 -240 0 0 -80 0 -80 -160 0 -160 0 0 -80 0 -80 80 0 80 0 0 -80 0 -80
-80 0 -80 0 0 80 0 80 -80 0 -80 0 0 160 0 160 160 0 160 0 0 80 0 80 -240 0
-240 0 0 240 0 240 -80 0 -80 0 0 80 0 80 -240 0 -240 0 0 -80 0 -80 160 0
160 0 0 -80 0 -80 80 0 80 0 0 -80 0 -80 -80 0 -80 0 0 -160 0 -160 80 0 80 0
0 -80 0 -80 80 0 80 0 0 -80 0 -80 -160 0 -160 0 0 160 0 160 -80 0 -80 0 0
80 0 80 -80 0 -80 0 0 80 0 80 -80 0 -80 0 0 80 0 80 80 0 80 0 0 80 0 80 -80
0 -80 0 0 80 0 80 -80 0 -80 0 0 80 0 80 80 0 80 0 0 80 0 80 80 0 80 0 0 80
0 80 80 0 80 0 0 -80 0 -80 80 0 80 0 0 -80 0 -80 80 0 80 0 0 -80 0 -80 80 0
80 0 0 240 0 240 80 0 80 0 0 160 0 160 80 0 80 0 0 80 0 80 80 0 80 0 0 -80
0 -80 240 0 240 0 0 -80 0 -80 80 0 80 0 0 240 0 240 -80 0 -80 0 0 80 0 80
-160 0 -160 0 0 -80 0 -80 -80 0 -80 0 0 240 0 240 -80 0 -80 0 0 240 0 240
-80 0 -80 0 0 -160 0 -160 -80 0 -80 0 0 160 0 160 80 0 80 0 0 80 0 80 80 0
80 0 0 80 0 80 160 0 160 0 0 -80 0 -80 240 0 240 0 0 160 0 160 80 0 80 0 0
80 0 80 -80 0 -80 0 0 80 0 80 240 0 240 0 0 -80z m320 0 l0 -80 -80 0 -80 0
0 80 0 80 80 0 80 0 0 -80z m-1760 -1280 l0 -80 -80 0 -80 0 0 80 0 80 80 0
80 0 0 -80z m160 -320 l0 -80 -80 0 -80 0 0 -80 0 -80 -80 0 -80 0 0 160 0
160 160 0 160 0 0 -80z m3040 -960 l0 -80 -80 0 -80 0 0 80 0 80 80 0 80 0 0
-80z m-4320 -480 l0 -80 -160 0 -160 0 0 80 0 80 160 0 160 0 0 -80z m0 -320
l0 -80 -80 0 -80 0 0 80 0 80 80 0 80 0 0 -80z m2400 0 l0 -80 -80 0 -80 0 0
80 0 80 80 0 80 0 0 -80z m480 0 l0 -80 -80 0 -80 0 0 -240 0 -240 -160 0
-160 0 0 80 0 80 -80 0 -80 0 0 -80 0 -80 -160 0 -160 0 0 -80 0 -80 -160 0
-160 0 0 80 0 80 160 0 160 0 0 80 0 80 160 0 160 0 0 80 0 80 80 0 80 0 0
-80 0 -80 80 0 80 0 0 240 0 240 160 0 160 0 0 -80z m800 -640 l0 -240 -240 0
-240 0 0 240 0 240 240 0 240 0 0 -240z m-800 -320 l0 -80 -80 0 -80 0 0 80 0
80 80 0 80 0 0 -80z m1440 0 l0 -80 -80 0 -80 0 0 80 0 80 80 0 80 0 0 -80z
m-3520 -160 l0 -80 80 0 80 0 0 80 0 80 80 0 80 0 0 -80 0 -80 -80 0 -80 0 0
-80 0 -80 80 0 80 0 0 -80 0 -80 -240 0 -240 0 0 80 0 80 80 0 80 0 0 80 0 80
-80 0 -80 0 0 80 0 80 80 0 80 0 0 -80z m2720 0 l0 -80 -80 0 -80 0 0 -80 0
-80 80 0 80 0 0 -80 0 -80 -80 0 -80 0 0 80 0 80 -80 0 -80 0 0 80 0 80 80 0
80 0 0 80 0 80 80 0 80 0 0 -80z m-480 -160 l0 -80 -80 0 -80 0 0 80 0 80 80
0 80 0 0 -80z"/>
<path d="M2720 4720 l0 -240 80 0 80 0 0 240 0 240 -80 0 -80 0 0 -240z"/>
<path d="M4000 3760 l0 -80 80 0 80 0 0 80 0 80 -80 0 -80 0 0 -80z"/>
<path d="M4480 3760 l0 -80 -80 0 -80 0 0 -160 0 -160 -80 0 -80 0 0 80 0 80
-80 0 -80 0 0 -80 0 -80 -80 0 -80 0 0 -80 0 -80 -240 0 -240 0 0 -80 0 -80
160 0 160 0 0 -240 0 -240 80 0 80 0 0 80 0 80 80 0 80 0 0 80 0 80 -80 0 -80
0 0 80 0 80 160 0 160 0 0 -80 0 -80 80 0 80 0 0 80 0 80 -80 0 -80 0 0 80 0
80 80 0 80 0 0 80 0 80 80 0 80 0 0 160 0 160 80 0 80 0 0 80 0 80 -80 0 -80
0 0 -80z"/>
<path d="M2880 3280 l0 -80 160 0 160 0 0 80 0 80 -160 0 -160 0 0 -80z"/>
<path d="M2400 3120 l0 -80 80 0 80 0 0 -80 0 -80 80 0 80 0 0 160 0 160 -160
0 -160 0 0 -80z"/>
<path d="M2880 2880 l0 -160 80 0 80 0 0 160 0 160 -80 0 -80 0 0 -160z"/>
<path d="M1440 2800 l0 -80 80 0 80 0 0 80 0 80 -80 0 -80 0 0 -80z"/>
<path d="M2240 2640 l0 -80 80 0 80 0 0 80 0 80 -80 0 -80 0 0 -80z"/>
<path d="M2720 2480 l0 -80 -80 0 -80 0 0 -80 0 -80 80 0 80 0 0 -80 0 -80 80
0 80 0 0 240 0 240 -80 0 -80 0 0 -80z"/>
<path d="M1760 2320 l0 -80 80 0 80 0 0 80 0 80 -80 0 -80 0 0 -80z"/>
<path d="M5120 2320 l0 -80 80 0 80 0 0 80 0 80 -80 0 -80 0 0 -80z"/>
<path d="M4640 1520 l0 -80 80 0 80 0 0 80 0 80 -80 0 -80 0 0 -80z"/>
<path d="M4640 5200 l0 -560 560 0 560 0 0 560 0 560 -560 0 -560 0 0 -560z
m960 0 l0 -400 -400 0 -400 0 0 400 0 400 400 0 400 0 0 -400z"/>
<path d="M4960 5200 l0 -240 240 0 240 0 0 240 0 240 -240 0 -240 0 0 -240z"/>
<path d="M1760 4720 l0 -80 80 0 80 0 0 80 0 80 -80 0 -80 0 0 -80z"/>
<path d="M480 4400 l0 -80 160 0 160 0 0 -80 0 -80 -160 0 -160 0 0 -80 0 -80
240 0 240 0 0 80 0 80 80 0 80 0 0 160 0 160 -320 0 -320 0 0 -80z"/>
<path d="M1440 4400 l0 -80 -80 0 -80 0 0 -80 0 -80 80 0 80 0 0 -80 0 -80 80
0 80 0 0 80 0 80 80 0 80 0 0 80 0 80 80 0 80 0 0 80 0 80 -80 0 -80 0 0 -80
0 -80 -80 0 -80 0 0 80 0 80 -80 0 -80 0 0 -80z m160 -160 l0 -80 -80 0 -80 0
0 80 0 80 80 0 80 0 0 -80z"/>
<path d="M4960 4400 l0 -80 160 0 160 0 0 -160 0 -160 80 0 80 0 0 -80 0 -80
80 0 80 0 0 80 0 80 80 0 80 0 0 240 0 240 -80 0 -80 0 0 -80 0 -80 -80 0 -80
0 0 80 0 80 -240 0 -240 0 0 -80z"/>
<path d="M480 1040 l0 -560 560 0 560 0 0 560 0 560 -560 0 -560 0 0 -560z
m960 0 l0 -400 -400 0 -400 0 0 400 0 400 400 0 400 0 0 -400z"/>
<path d="M800 1040 l0 -240 240 0 240 0 0 240 0 240 -240 0 -240 0 0 -240z"/>
<path d="M5280 560 l0 -80 80 0 80 0 0 80 0 80 -80 0 -80 0 0 -80z"/>
</g>
</g></svg>
